<?xml version="1.0" encoding="utf-8"?>
<!-- Generator: Adobe Illustrator 23.0.0, SVG Export Plug-In . SVG Version: 6.00 Build 0)  -->
<svg version="1.1" id="Layer_1" xmlns="http://www.w3.org/2000/svg" xmlns:xlink="http://www.w3.org/1999/xlink" x="0px" y="0px"
	 viewBox="0 0 2000 1500" style="enable-background:new 0 0 2000 1500;" xml:space="preserve">
<style type="text/css">
	.st0{fill:#401F68;}
	.st1{fill:#FFFFFF;}
</style>
<rect x="-16.71" y="-12.14" class="st0" width="2028.86" height="1527.43"/>
<g>
	<g>
		<g>
			<path class="st1" d="M854.57,1161.21c-2.21,0.05-4.33,0.07-6.36,0.07c-26.43,0-49.22-4.93-68.37-14.78
				c-19.15-9.86-55.1-45.86-70.33-65.79c14.33-10.3,25.7-23.35,34.1-39.14c8.4-15.79,12.6-33.43,12.6-52.91
				c0-16.13-3.08-31.19-9.24-45.19c-6.16-13.99-14.51-26.15-25.03-36.45c-10.53-10.3-22.85-18.36-36.96-24.19
				c-14.11-5.82-29.23-8.74-45.36-8.74c-16.13,0-31.25,2.91-45.36,8.74c-14.11,5.83-26.43,13.89-36.96,24.19
				c-10.53,10.31-18.82,22.46-24.86,36.45c-6.05,14-9.07,29.06-9.07,45.19c0,16.13,3.02,31.19,9.07,45.19
				c6.05,14,14.28,26.15,24.69,36.45c10.41,10.3,22.73,18.37,36.96,24.19c14.22,5.82,29.4,8.74,45.52,8.74
				c14.11,0,27.66-2.24,40.65-6.72c17.47,24.64,57.12,64.28,81.42,76.71c24.3,12.43,51.24,18.65,80.8,18.65
				c4.2,0,8.21-0.13,12.07-0.36V1161.21z M671.55,1064.41c-9.63,4.15-20.16,6.22-31.58,6.22c-11.42,0-22.01-2.07-31.75-6.22
				c-9.74-4.14-18.14-9.85-25.2-17.13c-7.06-7.28-12.6-15.96-16.63-26.04c-4.03-10.08-6.05-21.05-6.05-32.93
				c0-11.64,1.96-22.51,5.88-32.59c3.92-10.08,9.41-18.7,16.46-25.87c7.05-7.17,15.45-12.82,25.2-16.97
				c9.74-4.14,20.33-6.21,31.75-6.21c11.42,0,22.06,2.07,31.92,6.21c9.85,4.15,18.31,9.86,25.37,17.14
				c7.06,7.28,12.6,15.96,16.63,26.04c4.03,10.08,6.05,20.95,6.05,32.59c0,11.87-2.02,22.79-6.05,32.76
				c-4.03,9.97-9.63,18.6-16.8,25.87C689.58,1054.56,681.18,1060.27,671.55,1064.41z"/>
			<path class="st1" d="M1009.54,874.09v225.44h-35.61V960.43l-63.5,83.32h-12.1l-63.83-83.32v139.09h-35.61V874.09h12.43
				l93.06,123.98l93.06-123.98H1009.54z"/>
			<path class="st1" d="M1168.12,874.09c16.13,0,31.25,2.91,45.36,8.74c14.11,5.83,26.43,13.89,36.96,24.19
				c10.53,10.31,18.87,22.46,25.03,36.45c6.16,14,9.24,29.06,9.24,45.19c0,16.35-3.08,31.53-9.24,45.52
				c-6.16,14-14.51,26.1-25.03,36.28c-10.53,10.2-22.85,18.2-36.96,24.02c-14.11,5.82-29.23,8.74-45.36,8.74
				c-16.13,0-31.3-2.92-45.53-8.74c-14.22-5.82-26.54-13.89-36.96-24.19c-10.42-10.3-18.65-22.45-24.69-36.45
				c-6.05-14-9.07-29.06-9.07-45.19c0-16.13,3.02-31.19,9.07-45.19c6.05-13.99,14.33-26.15,24.86-36.45
				c10.53-10.3,22.85-18.36,36.96-24.19C1136.87,877,1151.99,874.09,1168.12,874.09z M1168.45,906.68
				c-11.42,0-22.01,2.07-31.75,6.21c-9.74,4.15-18.14,9.8-25.2,16.97c-7.05,7.17-12.6,15.79-16.63,25.87
				c-4.03,10.08-6.05,20.94-6.05,32.59c0,11.88,2.02,22.85,6.05,32.93c4.03,10.08,9.58,18.76,16.63,26.04
				c7.06,7.28,15.46,12.99,25.2,17.13c9.74,4.15,20.33,6.22,31.75,6.22c11.42,0,21.95-2.07,31.58-6.22
				c9.63-4.14,18.03-9.85,25.2-17.13c7.17-7.28,12.77-15.96,16.8-26.04c4.03-10.08,6.05-21.05,6.05-32.93
				c0-11.64-2.02-22.45-6.05-32.42c-4.03-9.96-9.63-18.59-16.8-25.87c-7.17-7.28-15.57-12.99-25.2-17.14
				C1190.4,908.75,1179.88,906.68,1168.45,906.68z"/>
			<path class="st1" d="M1469.82,909.7h-106.84v65.85h88.02v32.59h-88.02v91.38h-35.61V877.78h142.45V909.7z"/>
		</g>
		<g>
			<path class="st1" d="M931.03,1154.34c-0.79-1.06-1.65-2.07-2.59-3.04c-4.87-4.87-10.76-7.31-17.66-7.31
				c-6.87,0-12.74,2.44-17.61,7.31c-4.87,4.87-7.31,10.76-7.31,17.66c0,6.87,2.44,12.74,7.31,17.61c4.87,4.87,10.74,7.31,17.61,7.31
				c6.9,0,12.79-2.44,17.66-7.31c0.94-0.97,1.8-1.98,2.59-3.04v9.08h4.09v-72.64h-4.09V1154.34z M931.03,1173
				c-0.76,3.97-2.65,7.46-5.67,10.49c-4.03,4.03-8.88,6.04-14.57,6.04c-5.69,0-10.55-2-14.57-6.01c-4.03-4.01-6.04-8.86-6.04-14.55
				c0-5.69,2.01-10.55,6.04-14.57c4.02-4.02,8.88-6.04,14.57-6.04c5.69,0,10.55,2.01,14.57,6.04c3.03,3.03,4.92,6.54,5.67,10.53
				V1173z"/>
			<path class="st1" d="M1017.22,1154.34c-0.79-1.06-1.65-2.07-2.59-3.04c-4.87-4.87-10.76-7.31-17.66-7.31
				c-6.87,0-12.74,2.44-17.61,7.31c-4.87,4.87-7.31,10.76-7.31,17.66c0,6.87,2.44,12.74,7.31,17.61c4.87,4.87,10.74,7.31,17.61,7.31
				c6.9,0,12.79-2.44,17.66-7.31c0.94-0.97,1.8-1.98,2.59-3.04v9.08h4.09v-44.58h-4.09V1154.34z M1017.22,1173
				c-0.76,3.97-2.65,7.46-5.67,10.49c-4.03,4.03-8.88,6.04-14.57,6.04c-5.69,0-10.55-2-14.57-6.01c-4.03-4.01-6.04-8.86-6.04-14.55
				c0-5.69,2.01-10.55,6.04-14.57c4.02-4.02,8.88-6.04,14.57-6.04c5.69,0,10.55,2.01,14.57,6.04c3.03,3.03,4.92,6.54,5.67,10.53
				V1173z"/>
			<polygon class="st1" points="1070.04,1129.06 1065.96,1129.06 1065.96,1148.03 1056.88,1148.03 1056.88,1152.12 1065.96,1152.12 
				1065.96,1192.61 1070.04,1192.61 1070.04,1152.12 1079.12,1152.12 1079.12,1148.03 1070.04,1148.03 			"/>
			<path class="st1" d="M1158.5,1154.34c-0.79-1.06-1.65-2.07-2.59-3.04c-4.87-4.87-10.76-7.31-17.66-7.31
				c-6.87,0-12.74,2.44-17.61,7.31c-4.87,4.87-7.31,10.76-7.31,17.66c0,6.87,2.43,12.74,7.31,17.61c4.87,4.87,10.74,7.31,17.61,7.31
				c6.9,0,12.79-2.44,17.66-7.31c0.94-0.97,1.8-1.98,2.59-3.04v9.08h4.09v-44.58h-4.09V1154.34z M1158.5,1173
				c-0.76,3.97-2.65,7.46-5.67,10.49c-4.03,4.03-8.88,6.04-14.57,6.04s-10.55-2-14.57-6.01c-4.03-4.01-6.04-8.86-6.04-14.55
				c0-5.69,2.01-10.55,6.04-14.57c4.02-4.02,8.88-6.04,14.57-6.04s10.55,2.01,14.57,6.04c3.03,3.03,4.92,6.54,5.67,10.53V1173z"/>
			<path class="st1" d="M1225.17,1143.99c-6.87,0-12.74,2.44-17.61,7.31c-0.97,0.97-1.83,1.97-2.59,3v-34.32h-4.09v72.64h4.09v-9.03
				c0.76,1.03,1.62,2.03,2.59,3c4.87,4.87,10.74,7.31,17.61,7.31c6.9,0,12.78-2.44,17.64-7.31c4.86-4.87,7.29-10.74,7.29-17.61
				c0-6.9-2.43-12.78-7.29-17.66C1237.95,1146.43,1232.07,1143.99,1225.17,1143.99z M1239.74,1183.51
				c-4.03,4.01-8.88,6.01-14.57,6.01c-5.69,0-10.55-2.01-14.57-6.04c-2.97-2.97-4.84-6.39-5.63-10.26v-8.53
				c0.79-3.9,2.66-7.34,5.63-10.3c4.02-4.02,8.88-6.04,14.57-6.04c5.69,0,10.55,2.01,14.57,6.04c4.02,4.02,6.04,8.88,6.04,14.57
				C1245.78,1174.65,1243.77,1179.5,1239.74,1183.51z"/>
			<path class="st1" d="M1331.06,1154.34c-0.79-1.06-1.65-2.07-2.59-3.04c-4.87-4.87-10.76-7.31-17.66-7.31
				c-6.87,0-12.74,2.44-17.61,7.31c-4.87,4.87-7.31,10.76-7.31,17.66c0,6.87,2.43,12.74,7.31,17.61c4.87,4.87,10.74,7.31,17.61,7.31
				c6.9,0,12.79-2.44,17.66-7.31c0.94-0.97,1.8-1.98,2.59-3.04v9.08h4.09v-44.58h-4.09V1154.34z M1331.06,1173
				c-0.76,3.97-2.65,7.46-5.67,10.49c-4.03,4.03-8.88,6.04-14.57,6.04c-5.69,0-10.55-2-14.57-6.01c-4.03-4.01-6.04-8.86-6.04-14.55
				c0-5.69,2.01-10.55,6.04-14.57c4.02-4.02,8.88-6.04,14.57-6.04c5.69,0,10.55,2.01,14.57,6.04c3.03,3.03,4.92,6.54,5.67,10.53
				V1173z"/>
			<path class="st1" d="M1385.93,1165.46c-2.45-1.54-4.06-2.69-4.81-3.45c-1.3-1.3-1.95-2.86-1.95-4.68c0-1.85,0.65-3.41,1.95-4.7
				c1.3-1.29,2.86-1.93,4.68-1.93c1.84,0,3.33,0.57,4.47,1.72c1.13,1.15,1.85,2.88,2.16,5.18l3.54-1.41v-0.23
				c0-2.42-0.94-4.59-2.81-6.49c-1.94-1.94-4.39-2.9-7.35-2.9c-2.94,0-5.45,1.05-7.54,3.15c-2.09,2.1-3.13,4.64-3.13,7.6
				c0,2.94,1.04,5.45,3.13,7.54c1.33,1.33,3.74,2.94,7.22,4.81c2.93,1.88,4.89,3.3,5.86,4.27c1.78,1.78,2.68,3.93,2.68,6.44
				c0,2.57-0.9,4.75-2.7,6.54c-1.8,1.79-3.96,2.68-6.47,2.68c-2.51,0-4.67-0.89-6.47-2.68c-1.8-1.78-2.7-4.01-2.7-6.67l-4.04,1.04
				c0,3.09,1.29,5.92,3.86,8.51c2.57,2.59,5.69,3.88,9.35,3.88s6.78-1.29,9.35-3.88c2.57-2.59,3.86-5.73,3.86-9.42
				c0-3.6-1.29-6.7-3.86-9.31C1392.56,1169.46,1389.8,1167.58,1385.93,1165.46z"/>
			<path class="st1" d="M1472.3,1181.9c-0.45,0.55-0.94,1.07-1.45,1.59c-4.02,4.03-8.88,6.04-14.57,6.04
				c-5.3,0-9.87-1.75-13.71-5.27l29.05-29.05l3.09-3.09c-0.24-0.27-0.5-0.55-0.77-0.82c-0.73-0.73-1.45-1.39-2.18-2
				c-4.42-3.54-9.58-5.31-15.48-5.31c-6.87,0-12.74,2.44-17.61,7.31c-4.87,4.87-7.31,10.74-7.31,17.61c0,6.9,2.43,12.79,7.31,17.66
				c4.87,4.87,10.74,7.31,17.61,7.31c6.9,0,12.78-2.44,17.66-7.31c1-1,1.89-2.04,2.68-3.13L1472.3,1181.9z M1435.71,1168.91
				c0-5.69,2.01-10.54,6.04-14.55c4.02-4.01,8.87-6.01,14.53-6.01c4.69,0,8.81,1.36,12.35,4.08l-28.83,28.83
				C1437.08,1177.72,1435.71,1173.6,1435.71,1168.91z"/>
		</g>
	</g>
	<g>
		<path class="st1" d="M903.87,497.74c-8.4,0.83-14.53,8.3-13.71,16.7c0.83,8.4,8.3,14.53,16.7,13.71c8.4-0.83,14.53-8.3,13.71-16.7
			C919.74,503.05,912.26,496.91,903.87,497.74z"/>
		<path class="st1" d="M886.12,566.51c-8.4,0.83-14.53,8.3-13.71,16.7c0.83,8.4,8.3,14.53,16.7,13.71c8.4-0.83,14.53-8.3,13.71-16.7
			C901.99,571.82,894.51,565.69,886.12,566.51z"/>
		<path class="st1" d="M863.93,519.92c-8.4,0.83-14.53,8.3-13.71,16.7c0.83,8.4,8.3,14.53,16.7,13.71c8.4-0.83,14.53-8.3,13.71-16.7
			C879.8,525.23,872.33,519.1,863.93,519.92z"/>
		<path class="st1" d="M866.92,605.22c-10.33,1.02-17.88,10.22-16.87,20.55c1.02,10.33,10.22,17.88,20.55,16.87
			c10.33-1.02,17.88-10.22,16.87-20.55C886.45,611.75,877.25,604.2,866.92,605.22z"/>
		<path class="st1" d="M826.73,560.49c-11.72,1.15-20.29,11.59-19.14,23.31c1.15,11.72,11.59,20.29,23.31,19.14
			c11.72-1.15,20.29-11.59,19.14-23.31C848.89,567.9,838.46,559.34,826.73,560.49z"/>
		<path class="st1" d="M861.12,658.1c-11.72,1.15-20.29,11.59-19.14,23.31c1.15,11.72,11.59,20.29,23.31,19.14
			c11.72-1.15,20.29-11.59,19.14-23.31C883.28,665.52,872.84,656.95,861.12,658.1z"/>
		<path class="st1" d="M918.55,670.61c-11.72,1.15-20.29,11.59-19.14,23.31c1.15,11.72,11.59,20.29,23.31,19.14
			c11.72-1.15,20.29-11.59,19.14-23.31C940.71,678.02,930.27,669.46,918.55,670.61z"/>
		<path class="st1" d="M950.12,723c-11.72,1.15-20.29,11.59-19.14,23.31c1.15,11.72,11.59,20.29,23.31,19.14
			c11.72-1.15,20.29-11.59,19.14-23.31C972.27,730.41,961.84,721.84,950.12,723z"/>
		<path class="st1" d="M1056.05,718.56c-11.72,1.15-20.29,11.59-19.14,23.31c1.15,11.72,11.59,20.29,23.31,19.14
			c11.72-1.15,20.29-11.59,19.14-23.31C1078.21,725.97,1067.77,717.41,1056.05,718.56z"/>
		<path class="st1" d="M1138.13,651.15c-11.72,1.15-20.29,11.59-19.14,23.31c1.15,11.72,11.59,20.29,23.31,19.14
			c11.72-1.15,20.29-11.59,19.14-23.31C1160.29,658.56,1149.86,649.99,1138.13,651.15z"/>
		<path class="st1" d="M1168.64,550.51c-11.72,1.15-20.29,11.59-19.14,23.31c1.15,11.72,11.59,20.29,23.31,19.14
			c11.72-1.15,20.29-11.59,19.14-23.31C1190.8,557.92,1180.36,549.35,1168.64,550.51z"/>
		<path class="st1" d="M1133.7,452.29c-11.72,1.15-20.29,11.59-19.14,23.31c1.15,11.72,11.59,20.29,23.31,19.14
			c11.72-1.15,20.29-11.59,19.14-23.31C1155.86,459.7,1145.42,451.13,1133.7,452.29z"/>
		<path class="st1" d="M1043.9,391.28c-11.72,1.15-20.29,11.59-19.14,23.31c1.15,11.72,11.59,20.29,23.31,19.14
			c11.72-1.15,20.29-11.59,19.14-23.31C1066.06,398.69,1055.62,390.12,1043.9,391.28z"/>
		<path class="st1" d="M939.88,395.71c-11.72,1.15-20.29,11.59-19.14,23.31c1.15,11.72,11.59,20.29,23.31,19.14
			c11.72-1.15,20.29-11.59,19.14-23.31C962.04,403.13,951.6,394.56,939.88,395.71z"/>
		<path class="st1" d="M857.29,461.51c-11.72,1.15-20.29,11.59-19.14,23.31c1.15,11.72,11.59,20.29,23.31,19.14
			c11.72-1.15,20.29-11.59,19.14-23.31C879.45,468.93,869.01,460.36,857.29,461.51z"/>
		<path class="st1" d="M1193.1,482c-14.02,1.38-24.27,13.86-22.89,27.88c1.38,14.02,13.86,24.27,27.89,22.89
			c14.02-1.38,24.27-13.86,22.89-27.88C1219.61,490.87,1207.12,480.63,1193.1,482z"/>
		<path class="st1" d="M1116.4,382.93c-14.02,1.38-24.27,13.86-22.89,27.88c1.38,14.02,13.86,24.27,27.89,22.89
			c14.02-1.38,24.27-13.86,22.89-27.88C1142.9,391.8,1130.42,381.55,1116.4,382.93z"/>
		<path class="st1" d="M990.5,344.71c-14.02,1.38-24.27,13.86-22.89,27.88c1.38,14.02,13.86,24.27,27.89,22.89
			c14.02-1.38,24.27-13.86,22.89-27.88C1017,353.58,1004.52,343.33,990.5,344.71z"/>
		<path class="st1" d="M869.84,387.11c-14.02,1.38-24.27,13.86-22.89,27.88c1.38,14.02,13.86,24.27,27.89,22.89
			c14.02-1.38,24.27-13.86,22.89-27.88C896.35,395.98,883.86,385.73,869.84,387.11z"/>
		<path class="st1" d="M791.15,407.66c-16.77,1.65-29.02,16.58-27.37,33.34c1.65,16.77,16.58,29.02,33.34,27.37
			c16.77-1.65,29.02-16.58,27.37-33.34C822.84,418.26,807.91,406.01,791.15,407.66z"/>
		<path class="st1" d="M913.39,311.26c-16.77,1.65-29.02,16.58-27.37,33.34c1.65,16.77,16.58,29.02,33.34,27.37
			c16.77-1.65,29.02-16.58,27.37-33.34C945.08,321.87,930.15,309.61,913.39,311.26z"/>
		<path class="st1" d="M1067.47,306.27c-16.77,1.65-29.02,16.58-27.37,33.34c1.65,16.77,16.58,29.02,33.34,27.37
			c16.77-1.65,29.02-16.58,27.37-33.34C1099.16,316.87,1084.24,304.62,1067.47,306.27z"/>
		<path class="st1" d="M1195.01,392.88c-16.77,1.65-29.02,16.58-27.37,33.34c1.65,16.77,16.58,29.02,33.34,27.37
			c16.77-1.65,29.02-16.58,27.37-33.34C1226.7,403.48,1211.77,391.23,1195.01,392.88z"/>
		<path class="st1" d="M1245.69,539.05c-16.77,1.65-29.02,16.58-27.37,33.34c1.65,16.77,16.58,29.02,33.34,27.37
			c16.77-1.65,29.02-16.58,27.37-33.34C1277.38,549.65,1262.46,537.4,1245.69,539.05z"/>
		<path class="st1" d="M1198.25,686.69c-16.77,1.65-29.02,16.58-27.37,33.34c1.65,16.77,16.58,29.02,33.34,27.37
			c16.77-1.65,29.02-16.58,27.37-33.34C1229.94,697.29,1215.01,685.04,1198.25,686.69z"/>
		<path class="st1" d="M1079.45,781.08c-16.77,1.65-29.02,16.58-27.37,33.34c1.65,16.77,16.58,29.02,33.34,27.37
			c16.77-1.65,29.02-16.58,27.37-33.34C1111.14,791.69,1096.21,779.43,1079.45,781.08z"/>
		<path class="st1" d="M928.42,784.99c-16.77,1.65-29.02,16.58-27.37,33.34c1.65,16.77,16.58,29.02,33.34,27.37
			c16.77-1.65,29.02-16.58,27.37-33.34C960.11,795.6,945.18,783.35,928.42,784.99z"/>
		<path class="st1" d="M799.11,699.19c-16.77,1.65-29.02,16.58-27.37,33.34c1.65,16.77,16.58,29.02,33.34,27.37
			c16.77-1.65,29.02-16.58,27.37-33.34C830.8,709.8,815.87,697.54,799.11,699.19z"/>
		<path class="st1" d="M748.34,557.46c-16.77,1.65-29.02,16.58-27.37,33.34c1.65,16.77,16.58,29.02,33.34,27.37
			c16.77-1.65,29.02-16.58,27.37-33.34C780.03,568.06,765.11,555.81,748.34,557.46z"/>
		<path class="st1" d="M796.63,492.24c-14.02,1.38-24.27,13.86-22.89,27.88c1.38,14.02,13.86,24.27,27.89,22.89
			c14.02-1.38,24.27-13.86,22.89-27.88C823.13,501.11,810.65,490.86,796.63,492.24z"/>
		<path class="st1" d="M800.81,620.11c-14.02,1.38-24.27,13.86-22.89,27.88c1.38,14.02,13.86,24.27,27.89,22.89
			c14.02-1.38,24.27-13.86,22.89-27.88C827.32,628.98,814.83,618.73,800.81,620.11z"/>
		<path class="st1" d="M878.21,723.02c-14.02,1.38-24.27,13.86-22.89,27.88c1.38,14.02,13.86,24.27,27.89,22.89
			c14.02-1.38,24.27-13.86,22.89-27.89C904.71,731.89,892.23,721.64,878.21,723.02z"/>
		<path class="st1" d="M1002.67,758.51c-14.02,1.38-24.27,13.86-22.89,27.88c1.38,14.02,13.86,24.27,27.89,22.89
			c14.02-1.38,24.27-13.86,22.89-27.89C1029.18,767.38,1016.69,757.13,1002.67,758.51z"/>
		<path class="st1" d="M1122.2,718.83c-14.02,1.38-24.27,13.86-22.89,27.88c1.38,14.02,13.86,24.27,27.89,22.89
			c14.02-1.38,24.27-13.86,22.89-27.88C1148.7,727.7,1136.22,717.45,1122.2,718.83z"/>
		<path class="st1" d="M1193.1,610.68c-14.02,1.38-24.27,13.86-22.89,27.88c1.38,14.02,13.86,24.27,27.89,22.89
			c14.02-1.38,24.27-13.86,22.89-27.88C1219.61,619.55,1207.12,609.3,1193.1,610.68z"/>
		<path class="st1" d="M906.64,630.29c-8.4,0.83-14.53,8.3-13.71,16.7c0.83,8.4,8.3,14.53,16.7,13.71c8.4-0.83,14.53-8.3,13.71-16.7
			C922.51,635.6,915.04,629.47,906.64,630.29z"/>
		<path class="st1" d="M965.98,672.45c-8.4,0.83-14.53,8.3-13.71,16.7c0.83,8.4,8.3,14.53,16.7,13.71c8.4-0.83,14.53-8.3,13.71-16.7
			C981.86,677.76,974.38,671.62,965.98,672.45z"/>
		<path class="st1" d="M1035.31,668.56c-8.4,0.83-14.53,8.3-13.71,16.7c0.83,8.4,8.3,14.53,16.7,13.71
			c8.4-0.83,14.53-8.3,13.71-16.7C1051.19,673.87,1043.71,667.74,1035.31,668.56z"/>
		<path class="st1" d="M1090.78,627.52c-8.4,0.83-14.53,8.3-13.71,16.7c0.83,8.4,8.3,14.53,16.7,13.71
			c8.4-0.83,14.53-8.3,13.71-16.7C1106.65,632.83,1099.17,626.69,1090.78,627.52z"/>
		<path class="st1" d="M1112.96,559.86c-8.4,0.83-14.53,8.3-13.71,16.7c0.83,8.4,8.3,14.53,16.7,13.71
			c8.4-0.83,14.53-8.3,13.71-16.7C1128.83,565.17,1121.36,559.03,1112.96,559.86z"/>
		<path class="st1" d="M1130.44,600.41c-9.89,0.97-17.12,9.78-16.15,19.67c0.97,9.89,9.78,17.12,19.67,16.15
			c9.89-0.97,17.12-9.78,16.15-19.67C1149.14,606.66,1140.34,599.43,1130.44,600.41z"/>
		<path class="st1" d="M1083.73,670.31c-9.89,0.97-17.12,9.78-16.15,19.67c0.97,9.89,9.78,17.12,19.67,16.15
			c9.89-0.97,17.12-9.78,16.15-19.67C1102.43,676.57,1093.62,669.34,1083.73,670.31z"/>
		<path class="st1" d="M1001.77,699.13c-9.89,0.97-17.12,9.78-16.15,19.67c0.97,9.89,9.78,17.12,19.67,16.15
			c9.89-0.97,17.12-9.78,16.15-19.67C1020.47,705.39,1011.66,698.16,1001.77,699.13z"/>
		<path class="st1" d="M1127.97,510.3c-9.89,0.97-17.12,9.78-16.15,19.67c0.97,9.89,9.78,17.12,19.67,16.15
			c9.89-0.97,17.12-9.78,16.15-19.67C1146.67,516.56,1137.87,509.33,1127.97,510.3z"/>
		<path class="st1" d="M1075.23,443.49c-9.89,0.97-17.12,9.78-16.15,19.67c0.97,9.89,9.78,17.12,19.67,16.15
			c9.89-0.97,17.12-9.78,16.15-19.67C1093.93,449.75,1085.13,442.52,1075.23,443.49z"/>
		<path class="st1" d="M994.28,420.35c-9.89,0.97-17.12,9.78-16.15,19.67c0.97,9.89,9.78,17.12,19.67,16.15
			c9.89-0.97,17.12-9.78,16.15-19.67C1012.98,426.61,1004.17,419.38,994.28,420.35z"/>
		<path class="st1" d="M911.64,449.55c-9.89,0.97-17.12,9.78-16.15,19.67c0.97,9.89,9.78,17.12,19.67,16.15
			c9.89-0.97,17.12-9.78,16.15-19.67C930.34,455.81,921.53,448.57,911.64,449.55z"/>
		<path class="st1" d="M1088.56,492.19c-8.4,0.83-14.53,8.3-13.71,16.7c0.83,8.4,8.3,14.53,16.7,13.71
			c8.4-0.83,14.53-8.3,13.71-16.7C1104.43,497.5,1096.95,491.36,1088.56,492.19z"/>
		<path class="st1" d="M1029.21,452.26c-8.4,0.83-14.53,8.3-13.71,16.7c0.83,8.4,8.3,14.53,16.7,13.71
			c8.4-0.83,14.53-8.3,13.71-16.7C1045.08,457.57,1037.61,451.43,1029.21,452.26z"/>
		<path class="st1" d="M959.88,454.48c-8.4,0.83-14.53,8.3-13.71,16.7c0.83,8.4,8.3,14.53,16.7,13.71c8.4-0.83,14.53-8.3,13.71-16.7
			C975.76,459.79,968.28,453.65,959.88,454.48z"/>
	</g>
</g>
</svg>
